<svg xmlns="http://www.w3.org/2000/svg" xmlns:xlink="http://www.w3.org/1999/xlink" x="0px" y="0px" width="300px"
	 height="300px" viewBox="0 0 300 300" style="enable-background:new 0 0 300 300;" xml:space="preserve">
<g id="_x35__3_">
	<path d="M96.77,49.7c0.89-1.09,10.31-3.96,12.15,1.48C106.78,56.78,96.97,51.89,96.77,49.7z"/>
	<path d="M131.68,51.18c-0.11-0.72,11.59-4.98,13.53,1.28C142.56,58.3,132.12,52.38,131.68,51.18z"/>
	<path d="M125.72,77.87c-0.88-3.78-4.36-5.95-7.48-7.26v-5.23c9.15-1.15,2.71-5.18-1.17-5.33c-2.19-0.1-9.15,1.49-1.62,4.99v5.57
		c-4.11,1.26-5.55,5.59-6.84,8.76c8.97-7.42,9.88-6.15,18.26,1.28L125.72,77.87z"/>
	<path d="M239.74,164.66c-5.16-6.51-17.55-11.16-22.01-1.58c-1.41,15.78,20.1,16.31,10.28,36.74
		c-8.58,16.87-38.76,28.17-50.36,7.08c0.05-0.45,0.1-0.88,0.15-1.28c9.12,2.7,19.29-0.8,21.33-10.9
		c0.48-5.88-7.88-14.29-9.99-20.32c-6.04-25.6-1.8-63.62-26.55-82.26c4.25-3.3,7.91-7.47,10.27-12.59
		c2.71,0.82,10.38,3.29,11.33,3.59l0.19-0.43c-2.95-1.69-6.95-3.82-10.54-5.54c0.72-1.99,1.26-4.11,1.57-6.36
		c1.96,0.49,8.8,2.33,8.79,2.33l0.17-0.44c-2.3-1.19-5.86-2.9-8.72-4.14c0.23-2.77,0.26-5.38,0.12-7.82
		c2.75,0.21,5.19,0.4,5.09,0.4l0.09-0.46c-1.21-0.4-3.49-1.12-5.31-1.62c-1.25-14.07-7.83-22.45-10.27-25.11
		c2.24-19.7-5.66-31.78-6.78-33.89c-7.96-1.85-17.35,11.57-20.37,19.26c-6.62-1.75-20.95-3.2-26.34-1.05
		c-3.42-6.2-13.46-21.05-19.53-18.01c-0.78,1.88-7.25,15.37-7.33,28.54c-2.18,2.76-9.7,13-12.59,26.26
		c-3.31,0.3-7.24,0.9-10.12,1.47l0.02,0.47c1.04,0.15,7.25,0.81,9.54,1.09c-0.34,2.15-0.54,4.36-0.57,6.63
		c-3.44,1.18-7.39,2.99-10.28,4.43l0.14,0.45c1.13-0.14,7.91-1.23,10.22-1.54c0.19,2.82,0.64,5.85,1.5,8.66
		c-2.28,2.08-4.71,4.73-6.4,6.79l0.31,0.35c0.49-0.29,5.61-3.41,7.21-4.3c2.04,4.31,5.31,7.83,9.05,10.68
		c-1.78,5.08-4.89,10.88-2.98,15.55c-17.54,15.94-15.03,46.52-22.66,66.51c-2.88,6.08-10.43,15.31-9.23,21.48
		c2.09,7.43,10.76,14.04,18.48,11.46c1.38,9.43,8.13,16.37,14.63,21.55c2.88,11.53,7.86,36.4,7.72,49.81
		c-8.5,7.3-13.67,20.22,1.41,23.39c9.23-0.55,18.12-3.67,25.99-6.87c2.96,8.1,12.22,6.81,19.54,6.45
		c45.07,0.05,18.15-34.83,35.44-74.19c6.36,7.45,11.48,10.85,21.51,10.27c11.5-0.53,23.6-0.16,34.62-5.31
		c9.54-5.51,22.72-24.64,24.31-35.28C253.11,186.36,244.24,170.82,239.74,164.66z M78.27,77.55c4.07-1.08,8.97-1.73,12.09-4.6
		l-0.09-0.46c-4.1-1.28-9.6-1.52-13.32,1.31c-0.48-2.06-0.76-4.12-0.88-6.15c4.37,0.34,9.49-0.04,13.31-2.01l0-0.47
		c-3.79-1.86-8.97-2.94-13.32-1.77c0.08-1.56,0.25-3.09,0.48-4.59c3.83,1.48,8.56,2.49,12.48,1.37l0.13-0.45
		c-2.88-2.92-7.48-5.04-11.81-4.83c3.71-14.39,11.55-23.38,12.43-24.51c-0.67-8.86,3.79-21,5.61-25.36
		c2.83,0.1,14.34,17.93,14.45,19.13c8.56-4.72,24.06-1.19,31.18,0.68c2.13-5.47,7.71-17.74,14.93-19.95
		c1.98,3.52,7.09,17.22,4.45,30.73c3.94,2.93,9.73,13.71,10.38,22.15c-6.94-1.99-15.69-2.2-20.72,3.67l0.14,0.45
		c6.81,1.57,13.81-3.05,20.84-1.5c0.14,1.96,0.17,4.05,0.05,6.27c-6.63-2.9-14.96-3.74-20.98,0.62l0.05,0.47
		c6.34,2.73,14.1-0.42,20.68,1.93c-0.23,1.96-0.67,3.8-1.28,5.54c-6.29-2.97-14.17-4.03-20.37-0.79l-0.01,0.47
		c5.57,3.2,13.05,1.47,19.11,3.32c-2.95,5.9-7.86,10.3-13.46,13.43c-0.14-0.65-0.22-1.03-0.22-1.03
		c-7.5-0.55-17.98-1.77-26.45,4.46c-4.15-5.46-17.24-6.15-20.15,0.92C100.41,84.1,86.23,94.78,78.27,77.55z M172.49,209.6
		c-26.89,56.13,3.51,84.04-33.72,85.05c-0.98-2.62-0.7-3.02,0.98-5.21c1.87-2.4-1.94-5.28-3.74-2.83
		c-2.17,2.78-3.29,4.93-2.05,8.35c-1.3,0.07-2.87,0.14-4.44,0.14c-1.01-2.71-0.82-3.14,0.93-5.38c1.87-2.4-1.94-5.28-3.74-2.83
		c-1.98,2.61-3.27,4.67-2.19,7.85c-5.67-1.5-4.09-7.01-0.7-11.34c0.22-1.02,6.29-2.82,6.39-5.48c0-0.87-0.04-21.35-0.61-29.34
		c-0.31-4.31-3.81-18.3-3.96-18.89c0-1.37-3.06-2.29-3.41-2.23c-3.1,0.47-13.8-5.1-14.96-0.84c-0.48,4.19,6.52,3.46,12.29,5.18
		c-1.67,8.79-4.69,39.92-2.35,52.93c-2.07,6.88-12.45,6.73-18.52,9.22c-0.76-1.98,0.03-2.39,1.28-4.23
		c1.87-2.4-1.94-5.28-3.74-2.83c-2.08,2.7-3.28,4.81-2.12,8.12c-0.87,0.15-1.66,0.26-2.32,0.29c-1.03-2.8-0.96-3.28,0.86-5.58
		c1.87-2.4-1.94-5.28-3.74-2.83c-1.43,2.01-2.94,3.89-2.52,6.17c-4.33-5.51,5.23-10.12,7.35-15.72c0.79-9.24-6.03-46.1-8.05-52.37
		c-31.77-19.42-3.98-80.64-0.03-101.58c-4.92-19.52-23.22,71.03-19.93,77.21c-6.2,2.01-10.99-3.1-12.93-7.66
		c-0.56-4.7,6.77-13.77,8.92-18.81c7.59-18.66,5.1-47.89,20.25-63.6c1.63,3.65,3.43,6.99,3.43,6.99
		c5.24-0.82,17.53-1.34,22.61-8.92c1.34,8.15,16.78,6.44,20.59,1.23c4.87,5.85,15.44,8.59,20.58,9.69
		c2.7-4.19,9.79-14.4,6.57-23.06c0.97-0.5,1.93-1.03,2.87-1.61c0,0,0,0,0,0c24.78,18.11,19.68,56.09,26.07,80.98
		c2.33,7.94,13.2,16.31,8.45,21.21c-0.33-1.32-1.52-3.07-2.49-4.36c-1.8-2.45-5.61,0.43-3.74,2.83c2.02,2.39,1.78,3.1,0.69,6.07
		c-0.62,0.09-1.43,0.14-2.41,0.12c1.12-3.24-0.12-5.33-2.15-7.98c-1.8-2.45-5.61,0.43-3.74,2.83c1.47,2.04,2.02,2.39,1.13,4.73
		c-25.64-2.24-22.32-48.95-20.13-63.47c-9.2-17.25-10.97,63.95,12.95,66.32C173.04,206.09,172.73,208.69,172.49,209.6z
		 M123.23,239.89c2.96,10.93,1.98,27.3,2.28,36.69c-1.2,0.72-2.75,1.68-3.92,2.58C119.69,269.52,121.75,252.62,123.23,239.89z
		 M247.18,194.32c-1.38,9.23-13.73,27.13-22.02,31.92c-3.68,2.12-13.04,3.76-18.14,4c-14.74,0.82-24.23,3.56-33.73-9.79
		c1.06-2.51,2.29-5.35,3.09-7.62c13.52,19.77,46.3,8.38,55.94-11.17c9.53-21.89-5.53-21.49-10.2-36.95
		C233.52,152.84,248.58,187.71,247.18,194.32z"/>
</g>
</svg>
