<svg xmlns="http://www.w3.org/2000/svg" xmlns:xlink="http://www.w3.org/1999/xlink" x="0px"
	 y="0px" width="2000px" height="1000px" viewBox="0 0 2000 1000" style="enable-background:new 0 0 2000 1000;"
	 xml:space="preserve">
<style type="text/css">
	.st0{fill:#C0C0C0;}
</style>
<g>
	<path d="M923.77,501.59c-13.73-1.78-11.94-20.82,7.54-17.61c7.08-0.84,16.31-5.98,22.19-0.39c6.19,6.16,0.35,15.99-7.87,15.23
		C938.43,500.87,931.19,501.96,923.77,501.59z"/>
	<path d="M1049.47,481.76c-11.49-0.13-11.51-17.49,0-17.62c2.42,0.11,4.8-0.03,7.16-0.6c8.77,0.07,18.29-10.42,25.44-2.06
		C1091.49,478.02,1059.79,481.38,1049.47,481.76z"/>
	<path d="M1304.78,604.1c-4.68-3.74-12.79-5.48-12.77-12.83c-0.08-6.08,6.29-10.26,11.94-8.42
		C1333.89,596.18,1313.76,612.98,1304.78,604.1z"/>
	<path d="M1377.09,662.3c-4.26-2.95-7-7.76-10.06-11.81c-7.16-4.55-3.34-16.19,5.31-15.95c8.12-0.1,11.17,9.23,15.73,13.84
		C1396.05,655.56,1385.31,667.62,1377.09,662.3z"/>
	<path d="M637.32,639.65c-5.19-6.81,1.47-13.7,7.71-16.51c7.64-5.07,19.17-13.01,22.7,0.42c0.93,5.99-4.56,9.52-8.83,11.8
		C652.09,638.83,644.04,647.95,637.32,639.65z"/>
	<path d="M1282.68,451.79c-10.74-3.96-4.54-12.44-4.25-20.35c1.23-7.63-1.57-19.31,9.49-19.84c11.57,0.51,8.75,14.17,7.98,22.06
		C1295.49,441.75,1292.65,454.53,1282.68,451.79z"/>
	<path d="M1375.4,380.47c-8.24-0.84-20.55,2.99-21.23-8.71c0.51-9.46,9.23-9.24,16.72-9.02c8.42,0.82,23.45-3.6,24.22,8.85
		C1394.42,381.9,1383.2,380.95,1375.4,380.47z"/>
	<path d="M172.05,413.05c-11.89-12.09,10.5-25.16,21.57-24.68c13.37,1.77,10.92,18.18-2.64,18.14
		C183.33,408.75,182.13,419.39,172.05,413.05z"/>
	<path d="M353.22,629.65c-7.28-4.15-3.33-12.05-0.79-17.85c1.79-5.19,3.21-10.5,4.32-15.87c1.59-6.29,1.84-12.75,1.74-19.21
		c0.12-11.48,17.49-11.51,17.62,0C376.61,587.72,371.07,639.33,353.22,629.65z"/>
	<path d="M399.63,602.06c-11.04-5.22-0.87-16.28-1.11-24.65c0.29-11.36-1.9-22.74-4.02-33.83c-4.41-10.41,11.47-17.28,15.99-7.34
		C414.99,549.35,424.23,606.98,399.63,602.06z"/>
	<path class="st0" d="M832.18,580.28c-0.32-1.21-0.61-2.43-0.9-3.65c-3.04-2-4.19-6.02-3.28-9.47
		c-6.85-16.12-16.89-30.51-28.97-43.15c-6.21-6.2-14.41-10.89-19.64-17.93c-7.91-6.52-8.73-19.15-12.84-28.28
		c-5.1-17.18-13.68-33.1-22.17-48.82c-15.64,15.91-28.31,34.82-36.28,55.72c-0.18,5.52-5.25,9.33-10.47,9.56
		c-104.14,34.03-17.89,35.51-139.58,28.17c4.14,27.6,18.91,52.03,37.24,72.51c2.41,3.71,2.78,6.99,1.29,12.47
		c-0.68,23.68-3.14,49.4,3.09,72.62c10.46-3.44,26.66-18.52,37.2-13.23c3.54,2.42,5.18,7.48,3.29,11.39
		c-2.17,4.84-9.99,5.28-14.32,8.08c-6.59,3.5-13.11,7.17-19.9,10.28c1.63,3.34,3.78,6.44,6.13,9.27v0.01
		c2.69,3.16,5.49,6.24,8.65,8.96v-0.01c5-5.71,10.09-11.35,15.08-17.09c3.53-3.42,5.79-8.97,10.96-10.11
		c7.74-1.38,14.54,8.38,7.99,14.91c-6.41,7.62-12.76,15.33-19.66,22.51h-0.01V725c4.55,2.59,9.31,4.86,14.19,6.75
		c4.85-7.4,7.6-26.72,18.16-25.39c16.76,3.58,1.71,21.36-1.2,30.65c7.16,2.33,15.24,1.21,22.47,3.14
		c9.15-10.68,20.14-20.49,31.4-28.7c-0.17-0.11-0.33-0.24-0.5-0.37v-0.01c-8.49-9.65-9.47-33.03-10.22-45.92
		c-3.84-5.85-9.24-14.96-11.79-23.02c-12.15,2.5-19.51-11.45-7.85-17.22c3.77-1.29,8.27,0.76,11.64-1.98h0.01
		c12.31-18.65,29.18-1.19,12.78,12.32c2.83,9.27,7.76,17.84,13.65,25.48c3.2,0.99,6.48,1.62,9.8,2.08
		c-2.95-22.64,2.36-46.6,14.01-66.4c-5.11,1.84-10.47,3.93-14.68,0.13c-3.25-2.81-4.01-10.05-0.09-12.75
		c8.43-3.86,21.39-12.39,30.27-7.38c4.19-3.67,8.68-6.94,13.27-10.07c3.94-12.38,3.27-27.46,9.78-38.6c3.1-3.3,9.25-2.71,12.18,0.44
		c5.66,6.5-0.85,19.06-1.63,27.09c4.29,0.5,7.78,4.28,7.77,8.74c-0.11,7.08-7.71,9.36-12.45,12.91c-2.87,12.75-5.7,25.62-7.43,38.55
		c9.75-13.97,17.33-29.89,27.07-43.55c3.33-2.57,8.21-1.87,11.04,1.09c8.98,8-10.19,28.94-14.24,37.62
		c-3.68,5.95-7.62,11.68-11.18,17.7c-3.06,5.34-6.16,13.32-13.4,12.76c-0.01-0.01-0.02-0.01-0.03,0c-1.67-0.09-3.87-1.03-5.12-2.14
		h-0.01c-6.38-5.23-0.31-14.19,3.44-19.71c-3.15,2.63-8.07,2.77-11.45,0.48c0,0,0-0.01-0.01-0.01c-7.04-5.9-0.98-16.82-0.61-24.55
		c-19.42,23.36-25.54,57.47-13.42,85.58c0.01,0,0.01,0,0,0.01c0.89,2.16,2.01,4.21,3.32,6.15v0.01c3.75-1.82,7.56-3.39,11.58-4.21
		c15.2-34.63,34.37-67.71,58.68-96.76C833.35,584.2,832.71,582.28,832.18,580.28z M658.91,635.36c-5.86,2.81-12.32,10.32-18.88,6.69
		c-9.01-5.58-2.83-15.96,5.01-18.92c5.48-2.48,9-7.47,15.05-7.12C672.28,618.9,668.46,631.85,658.91,635.36z"/>
	<path class="st0" d="M773,793.2c-13.71,12.59-24.62,25.05-44.99,24.87c0.15-4.63,0.2-9.26,4.22-14.05
		c14.47-16.12-18.91-29.32-22.32,12.43c-3.87-0.94-7.53-2.28-10.86-4.32c4.33-3.51,2.89-9.46,4.09-14.29
		c0.84-8.09,11.62-17.63,1.62-23.89c-11.86-4.76-16.71,8.91-18.78,20.64c-8.8-36.16,51.73-77.57,81.46-89.75
		C759.1,733.63,757.4,766.23,773,793.2z"/>
	<path class="st0" d="M860.98,888.66c-1.78,4.69-4.62,9.02-8.25,12.53c-1.03-2.19-2.23-4.29-3.58-6.3v-0.01
		c-0.91-1.34-1.87-2.63-2.9-3.88c0.01-0.01,0.01-0.01,0-0.01c-1.41-1.72-2.93-3.34-4.55-4.87c0,0,0,0-0.01,0
		c-7.48-6.32-17.38-13.46-27.4-13.5c-6.86,1.78-9.29,12.14-2.35,16.13c10.35,3.95,20.02,10.37,25.37,20.35
		c-22.82,2.74-45.35-3.52-67.94-5.79c-32.68-4.32-65.7-5.81-98.3-10.79c-90.95-15.63-116.56-94.73-65.96-168.27
		c1.37,1.36,2.79,2.68,4.24,3.96c-3.21,3.99-6.31,8.05-9.25,12.26c-4.48,7.74-18.77,18.97-10.12,27.37
		c13.5,10.88,24.22-21.39,33.56-29.17c5.9,3.62,12.13,6.73,18.57,9.27c-4.83,10.84-9.59,21.66-13.88,32.71
		c-4.98,8.66-8.2,20.22,6,20.13c0-0.01,0.01-0.01,0.02,0c10.05-2.96,11.44-19.98,15.72-27.08c2.9-6.84,6.04-13.59,9.13-20.35
		c5.8,1.43,11.72,2.48,17.65,3.16c-38.24,60.75,43.88,102.87,90.57,65.71c31.6,12.55,64.84,5.89,89.11,37.38
		c-8.55-4.15-19.57-12.63-29.2-10.06c-5.26,1.73-7.56,10.56-2.76,14.43C837.5,870.49,854.08,874.05,860.98,888.66z"/>
	<path class="st0" d="M748.21,694.61c-4.94,2.27-9.77,4.89-14.48,7.73c0,0.01-0.01,0.01-0.01,0.01c-3.26-7.32-4.85-15.22-5.59-23.22
		c4.69,0.83,9.23,1.53,13.79,1.81C743.59,685.66,745.68,690.22,748.21,694.61z"/>
	<path class="st0" d="M1479.85,566.17c-20.07-1.24-39.64,4.12-58.01,11.77c-4.5,6.01-15.51,3.56-17.3-3.64
		c-5.78-5.45-12.39-9.96-18.68-14.81c-0.01,0-0.01,0-0.01,0c-1.63-1.22-3.15-2.55-4.81-3.75h-0.01c-4.7-4.15-13.26-5.54-13.27-13.13
		c4.33-20.32,5.15-37.7-2.47-57.47c-5.47,2.18-10.69,5.01-15.6,8.25c-0.01,0-0.01,0.01-0.01,0.01
		c-14.89,10.32-28.38,21.75-40.16,35.72c-1.43,5.14-7.3,6.24-11.48,8.32c-13.76,7.42-24.8,18.86-36.46,29.08
		c4.59,9.62,24.62,24.98,7.4,31.66c11.03,15.25,16.89,36.31,11.45,54.74c14.37-1.72,19.64-3.88,27.53-16.36
		c-4.16-5.46-0.54-14.56,6.92-14.32c8.63,0.88,15.7,7.77,20.3,14.78c7.06,8.67-6.86,19.87-13.7,10.95
		c-3.32,3.61-5.98,7.86-9.27,11.49c0.29,8.75,3.45,20.4-0.54,28.14c16.76,2.14,32.53,8.87,42.35,22.82c-2.09-2.9-1.86-6.78,0.1-9.58
		v-0.01c11.65-15.09,38.62,19.72,49.06,26.38c3.74-3.01,7.31-6.25,10.67-9.69c-15.09-10.41-33.07-16.58-48.08-26.66v-0.01
		c-7.02-8.53,5.15-17.71,13.33-12.44c15.38,8.64,31.56,15.63,46.12,25.59c0.4-0.55,0.78-1.1,1.16-1.65c0.01,0,0.01,0,0.01-0.01
		c14.68-24.1,26.45-50.61,29.85-78.76c9.67-18.42,20.05-36.88,24.77-57.34C1480.62,566.22,1480.23,566.18,1479.85,566.17z
		 M1319.8,598.54c-3.99,14.92-15.98,5.32-24.11-0.2c-8.37-5.71-0.96-18.77,8.25-15.48C1309.81,586.71,1320.19,590.14,1319.8,598.54z
		 M1377.09,662.3c-4.26-2.96-7.01-7.77-10.06-11.81c-5.14-3.04-4.72-10.94-0.1-14.26c0,0,0-0.01,0.01-0.01
		c9.71-6.59,16.2,6.18,21.12,12.15C1396.05,655.57,1385.31,667.62,1377.09,662.3z"/>
	<path class="st0" d="M1297.63,686.97c-6.8,0.44-13.62,2.08-19.77,4.96c-3.04-6.39-6-13.61-10.08-19.22
		c1.84-1.96,3.55-4.02,5.14-6.17c4.96,7.38,15.19,3.04,22.41,1.3C1296.37,673.9,1294.18,681.69,1297.63,686.97z"/>
	<path class="st0" d="M1262.02,651.29c-0.64,1.31-1.38,2.58-2.23,3.79c0,0.01-0.01,0.01-0.01,0.01c-8.07,9.76-20.1,20.63-33.8,18.33
		c2.34-9.36,11.43-16.55,8.83-26c-11.93-16.75-22.01,11.04-25.59,20.33c-4.58-2.64-8.64-6.09-12.07-10.09h0.01
		c3.13-2.29,4.97-6.28,6.27-9.95c1.57-4.39,5.78-7.19,7.18-11.62c2.73-8.78-9.17-14.76-15.2-8.14c-0.01,0-0.01,0-0.01,0.01
		c-3.55,3.23-5.68,8.3-7.9,12.52c-0.01,0-0.01,0.01-0.01,0.01c-3.96-11.96-4.04-25.79,3-36.04c-0.01-0.01-0.01-0.01,0-0.01
		c14.04-19.2,41.09-9.14,58.05,0.72C1263.3,613.07,1268.5,636.67,1262.02,651.29z"/>
	<path class="st0" d="M1387.14,736.7c-2.16,0.9-4.33,1.89-6.14,3.36c-3.31-2.74-6.61-5.56-9.74-8.5h-0.01
		c-5.71-6.07-10.91-12.99-15.64-19.1c0,0,0,0,0-0.01c-0.3-0.37-0.58-0.73-0.86-1.09c0.13,0.13,0.25,0.27,0.39,0.4v0.01
		C1367.46,718.01,1376.99,727.55,1387.14,736.7z"/>
	<path class="st0" d="M1401.69,757.06c-1.83-1.61-3.68-3.17-5.57-4.74c1.26-0.6,2.45-1.21,3.55-1.78
		C1400.2,752.72,1400.93,754.91,1401.69,757.06z"/>
	<polygon class="st0" points="1401.7,757.06 1401.7,757.07 1401.69,757.06 	"/>
	<path class="st0" d="M1411.9,830.53c-2.21,15.62-7.42,33.03-22.05,41.19c-56.86,25.67-87.26-18.1-82.15-72.2
		c7.94,1.56,20.99,9.68,27.95,3.81c3.03-3.03,3.89-8.33,1.36-11.93c-5.46-5.4-14.8-5.08-21.87-8.15
		c-9.38-2.99-18.74-6.77-26.39-13.11c6.24-6.47,13.77-10.1,22.36-12.39c6.17-2.26,5.66-12.77-0.56-15.29
		c-9.35-3.05-25.74,5.36-33.11,14.28c-1.98-2.94-3.83-5.98-5.44-9.12c5.4-1.72,8.45-9.76,14.7-11.05c4.08-2,8.87,0.94,12.51-2.17
		c6.96-4.63,3.23-15.67-4.78-16.35c-7.45-1.32-18.01,2.67-25.21,8.42c16.1-40.6,70.26-22.96,85.13,13.07h0.01
		c14.88,14.79,32.31,26.44,46.83,41.59c2.73,3.23,5.01,7.8,9.74,8.17C1412.89,802.91,1413.72,816.97,1411.9,830.53z"/>
	<path d="M1995.48,784.56c-4.14-14.17-11.55-26.03-18.83-39.08c22.9-42.19,18.88-91.52-20.93-121.56
		c19.1-32.13,9.16-71.82-13.32-99.31c19.78-13.67,66.04-47.2,12.63-48.95c-8.04-0.66-16.05-1.76-23.98-3.32
		c-0.04-1.92-0.76-3.96-2.39-5.93c5.2-18.7,7.44-40.84-2.94-58.17c-11.91-19.21-25.79-40.29-47.87-48.48
		c16.13-54.45-46.58-82.83-91.8-69.62c-20.23-40.27-82.45-41.92-108.91-7.5c-37.48-22.95-99.07,9.13-94.3,55.16
		c-6.88,3.26-12.32,7.96-16.5,13.6c-0.03-18.07-3.61-36.35-8.81-53.76c-7.65-26.4-11.26-54.1-21.89-79.56
		c1.19-1.38,1.92-3.24,1.91-5.58c-0.51-14.33,3.49-30.91-6.2-43.01c-26.84-27.13-95.87-73.42-118.8-19.9
		c-8.51-3.83-18.06-2.43-27.07-3.71c-13.42-1.54-27.31-5.32-40.8-2.63c-43.37-42.03-69.7-47.14-114.72-6.14
		c-13.76,10.23-24.7,23.65-27.36,41.01c-7.65,34.03-16.56,77.15,33.12,45.62c-23.69,39.2-17.67,84.74-22.77,128.09
		c-14.39,44.04-31.65,67.15,11.29,104.04c-3.03,4.19-9.6,12.88-17.19,23.61c-4-17.98-26.17,2.11-36.73,4.83
		c0.7-7.24,0.77-14.68,0.2-22.35c7.47-5.09,14.91-10.21,22.5-15.36c9.04-7.13-1.61-20.85-10.77-13.95c-4.77,3.2-9.61,6.55-14.5,9.91
		c-6.18-26.93-21.2-49.45-30.79-75.56c4.94-36.14-0.66-75.41-13.63-109.5c-10.09-33.54-83.33,35-96.77,52.98
		c-32.64,0.87-67.81,1.39-97.68,15.82c-19.28-9.59-82.3-51.61-98.67-30.19c-9.99,39.08-0.95,80.31,12.1,117.64
		c-3.95,32.93-9.39,70.38,0.58,101.95c-7.89,0.27-19-3-24.98,2.99c-8.37-8.83-17.18-17.44-26.89-24.9
		c-27.11-70.79-38.53-131.4-93.38-29.4c-12.7-29.38-20.92-61.3-21.58-93.41c4.02-4.91,9.06-9.15,13.79-13.43
		c29.79,14.95,57.75,35.88,77.88,62.84c5.27,7.25,10.79,16.07,20.79,16.32c59.7-6.64-36.64-148.01-53.72-172.06
		c27.38-133.1-100.3-204.2-216.42-197.56c-32.49,6.68-60.5,25.09-88.21,42.61c-74,49.32-154.11,80.6-202.74,160.11
		C117.96,282,72.81,372.7,120.04,469.82c-8.56,34.69-18.05,69.8-22.09,105.25c-15.78,21.76-27.39,46.45-41.82,69.14
		c-16.31,24.3-45.41,40.25-54.36,69.24c-6.68,27.02,28.97,31.2,47.75,26.62c-15.66,41.36-29.01,83.66-43.2,125.57
		c-1.47,8.73-12.1,20.53-2,27.27c11.84,5.35,18.28-11.24,26.28-17.11c37.83-34.68,72.64-72.04,108.24-108.97
		c18.51,1.61,36.93,3.86,54.57,10.18c33.44,46.43-70.96,118.24,14.34,133.13c16.06,2.01,30.66-6.45,46.01-9.59
		c46.92-6.89,96.15,2.03,140.88-18.02c34.26,36.28,134.31-19.1,141.27-61.6c10.11-6.78,16.38-19.47,27.49-23.08
		c-7.92,92.61,93.96,116.28,167.06,118.87c50.66,2.23,146.41,38.9,150.22-41.16c5.85,1.64,12.38,2.62,17.82,3.28
		c-76.31,153.64,26.82,114.82,138,120.95c45.48,0.92,89.68-3.56,135.27-1.44c92.31,8.37,63.81-44.03,37.8-101.1
		c31.17-19.08,62.79-42.97,80.92-75.56c3.65,103.9,142.3,97.93,139.87-1.7c7.02,32.51,46.62,53.88,77.94,44.04
		c18.51,22.2,54.94,25.29,79.83,12.72c16.77,12.09,40.26,15.65,60.14,9.59c19.95,60.35,113,71.12,154.76,27.85
		c30.79,34.13,97.32,25.56,112.76-19.28C1968.12,894.07,2015.01,835.45,1995.48,784.56z M1954.02,493.22
		c-27.06,30.12-74.26,39.11-96.13-1.92c-1.14-2.82-3.17-4.39-5.42-4.98c-0.63-4.81-1.93-9.52-3.94-13.9c2.72-2.6,5.09-5.4,7.14-8.5
		C1886.54,479.41,1919.34,490.83,1954.02,493.22z M1578.14,417.4c8.47-16.42,21.07-31.91,39.63-36.69
		c17.49,14.13,52.7,14.14,73.09,6.07c3.97,29.69,36.42,43.89,63.05,47.1c-9.78,23.87-2.12,52.38,16.67,69.49
		c-18.47,15.37-35.7,36.37-38.67,61.02c-61.76,28.48-134.9,41.6-195.79,3.19c1.56-1.17,3.06-2.54,4.41-4.03
		c6.71,7.81,16.36,13.48,26.63,13.43c10.21,0.02,33.74-4.32,22.4-18.62c-17.7-7.79-31.44,19.6-45.76-29.74
		c9.39-1.11,18.48-8.81,9.86-17.45c-11.28-5.72-14.6,7.32-25.45-6.47C1559.29,484.98,1564.76,448.67,1578.14,417.4z M1630.3,640.07
		c-2.29-5.09-4.78-16.2-8.42-24.17c7.42,2.52,13.37,8.09,19.19,13.08h0.01c15.37,21.06,20.4,47.46,30.74,71.07
		c-8.8,3.46-17.05,8.01-24.28,13.43c-11.6-13.5-31.5-17.53-48.25-12.64c-3.49-16.16-3.59-32.9-5.02-49.33
		c-0.26-11.79-5.18-27.49,8.94-33.13c1.13,3.2,2.86,6.5,4.16,9.36c4.38,7.84,5.76,23.77,12.11,30.21
		C1632.79,666.53,1636.86,650.09,1630.3,640.07z M1576.75,653.78c1.19,13.68,2.12,27.27,3.29,41.01c-5.38,0.24-10.72,1.36-16.01,2
		c-5.71-8.85-14.16-15.6-24.07-19.03c2.62-11.17,6.23-19.79,9.86-30.13c6.98-15.94,8.32-35.81,25.15-44.83
		c5.19,1.02,10.44,1.84,15.69,2.5C1572.64,617.01,1574.82,634.82,1576.75,653.78z M1519.54,521.25L1519.54,521.25
		c1.15,1.02,2.4,1.98,3.7,2.84h0.01c0.93,8.67,5.52,16.64,5.95,25.36c-1.07,1.64-2.75,2.92-4.41,4.08
		C1519.97,544.5,1517.95,533.73,1519.54,521.25z M1555.25,401.26c0.59,5.79,1.69,11.43,3.21,16.66c-2.15,4.82-3.8,9.82-5.32,14.87
		c-3.74-7.15-5.43-8.88-7.07-13.71C1549.41,413.28,1552.54,407.39,1555.25,401.26z M1334.88,158.34c-0.57-0.82-0.95-1.77-1.15-2.75
		C1333.96,156.59,1334.35,157.51,1334.88,158.34z M1231.17,349.21c0.36-2.53,0.65-5.06,0.89-7.61c12.36,16.99,25.04,3.25,18.54-6.03
		c-5.13-6.19-11.92-11.23-17.46-16.9c-2.15-49.07,14.02-100.26,55.52-129.39c4.77-4.13,4-11.6-0.55-14.76
		c4.5-5.25,8.53-10.15,11.95-14.33c7.18-12.79-10.03-21.14-18.05-5.49c-19.46,22.89-40.2,46.52-67.3,60.39
		c0.48-50.29,23.16-67.74,64.85-89.84c37.18,1.87,56.2,47.26,68.52,35.12c19.14-0.34,38.36,3.01,57.21,5.41
		c-3.56,12.62-30.12,66.41-6.54,67.32c33.26-2.11,65.5-11.83,97.54-19.86c12.71-0.47,10.7-19.3-1.76-17.62
		c-28.75,6.75-57.18,15.77-86.76,19c19.99-77.27,33.51-93.33,101.62-41.83c15,7.91,10.14,25.58,10.51,39.53
		c6.66,68.34,57.37,147.61,2.29,212.44c-10.06,10.18,4.42,23.92,13.1,12.2c10.73,18.84,13.48,19.21-1.04,37.09
		c-0.01,0-0.01,0.01-0.01,0.01c-7.12,9.58-17.09,16.22-24.93,25.16c-16.26,25.7-7.01,63.11,15.66,82.38
		c-22.87,16.67-39.25,44.42-37.03,73.28c-12.48,3.85-21.86,13.63-29.41,23.89c6.38-15.26,14-31.25,13.79-48.06
		c46.75-79.49,30.43-100.08-56.16-69.68c-9.34-8.58-19.91-15.33-29.8-23.34c4.03-18.07,3.36-36.57-3.26-53.92
		c11.05-5.17,110.57-29.8,77.49-47.77c-5.31-2.04-15.6,7.13-21.89,9.22c-21.57,9.25-43.66,15.7-65.86,23.47
		c-4.8-3.66-11.91-1.64-16.86,1.72c-0.01,0-0.01,0-0.02,0.01c-9.52,1.81-19.34,0.87-29.01,1.41
		c68.05-54.03-53.51-119.88-103.45-95.91C1227.24,367.32,1230.8,358.6,1231.17,349.21z M1223.7,429.87
		c-11.5-12.96-8.48-30.07,7.08-37.88c29.82-12.07,68.51,7.78,91.08,27.42c24.42,26.95-15.65,51.26-41.06,46.69
		C1258.14,459.57,1237.15,448.67,1223.7,429.87z M1236.08,469.34c1-0.89,1.83-1.81,2.5-2.75c25.41,16.57,56.82,22.69,86.85,22.92
		c-9,7.61-18.39,14.85-25.75,24.14h-0.01c-1.89,1.63-3.64,3.57-4.84,5.78c-16.61,7.77-30.54,20.19-43.67,32.97
		c-6.67-7.34-17.93-27.79-26.63-10.58c-2.19,7.63,10.56,17.69,14.87,23.87c-1.62,2.19-3.31,4.59-4.78,7.03
		c-10.17-3.5-23.67-25.13-34.11-15.71c-7.55,8.81,2.6,14.52,8.9,19.45c-2.26,0.19-4.42,0.49-6.47,0.9
		c-5.81-6.15-11.52-12.65-17.94-18.54c2.68-5.52,2.94-11.89,5.53-17.5c5.02-0.96,9.97-2.19,14.8-3.92
		c6.89-5.1,2.31-15.52-5.01-15.86C1210.86,503.26,1223.86,486.5,1236.08,469.34z M1235.2,648.86c-0.76-5.18-6.2-7.31-11.18-5.89
		c-8.71,4.85-10.72,16.62-14.81,24.77c-4.58-2.64-8.64-6.09-12.07-10.09v-0.01c3.15-2.26,4.97-6.28,6.28-9.95
		c1.57-4.39,5.78-7.19,7.18-11.62c2.73-8.78-9.17-14.76-15.2-8.14c-0.01,0-0.01,0-0.01,0.01c-3.55,3.23-5.68,8.3-7.9,12.52
		c-0.01,0-0.01,0.01-0.01,0.01c-3.96-11.96-4.04-25.8,3-36.04c-0.01-0.01-0.01-0.01,0-0.01c14.03-19.21,41.09-9.14,58.05,0.72
		c15.67,8.37,21.26,35.57,11.25,49.93c0,0.01-0.01,0.01-0.01,0.01c-8.07,9.76-20.1,20.63-33.8,18.33
		C1228.31,664.46,1236.23,657.78,1235.2,648.86z M1248.44,585.12c0.65-1.2,1.26-2.44,1.87-3.65c1.51,2.36,3.07,4.7,4.76,6.92
		C1252.93,587.25,1250.71,586.16,1248.44,585.12z M1166.28,505.59c11.43-4.93,22.5-10.68,33.74-16.03
		c-7.77,11.42-15.78,24.07-21.73,35.7c-7.16,1.23-14.32,2.45-21.49,3.55C1160.78,521.44,1163.96,513.68,1166.28,505.59z
		 M1170.39,544.35c-0.22,0.76-0.41,1.52-0.58,2.25c-0.91-0.61-1.83-1.21-2.74-1.78C1168.17,544.66,1169.27,544.5,1170.39,544.35z
		 M845.53,307.96c27.01,5.6,50.14,20.01,73.94,33.11c6.93,12.67,19.4-2.21,28.58-4.16c25.65-6.37,52.45-8.89,78.86-8.85
		c6.77,0.42,14.67,0,14.96-8.5c18.41-22.41,41.32-38.6,66.19-52.8c11.39,30.13,14.11,63.21,12.38,95.27
		c-9.15,8.44,31.82,69.11,31.32,91.34c-7.06,7.21-64.98,32.12-53.62,47.16c5.59,7.5,13.88,1.36,18.87-3.5
		c11.32-9.01,23.92-16.18,36.28-23.62c-0.05,6.63-0.67,12.96-1.85,19.03c-15.56,6.78-29.98,12.53-45.83,19.65
		c-4.67,2.38-7.06,7.79-4.38,12.68c5.2,8.46,14.62,2.01,21.2-0.85c7.41-2.89,14.62-6.27,21.9-9.46
		c-2.81,6.01-6.17,11.69-10.13,17.08c-10.31,2.2-23.7,0.7-32.09,7.75c-5.58,8.5,3.27,15.97,12.49,13.18
		c-45.86,40.44-118.07,56.51-176.8,34.64c7.92-3.67,5.22-17.03-3.73-16.77c-6.23,0.56-11.58,4.48-17.31,6.74
		c-4.79-2.76-9.43-5.79-13.88-9.07c8.76-3.75,28.36-0.65,29.17-13.18c-0.87-18.2-34.89-1.1-46.24-1.6
		c-5.32-5.47-10.28-11.34-14.54-17.67c15.46,1.19,30.95,2.24,46.44,2.64c11.52-0.14,11.47-17.51,0-17.63
		c-18.63-0.47-37.24-1.85-55.8-3.53c-11.81-34.18-5.89-73.45-0.86-109.27c-0.38-3.17-2.3-5.41-4.76-6.57
		C847.32,371.06,839.82,339.54,845.53,307.96z M849.47,533.66c0.33,0.04,0.66,0.06,0.98,0.09c3.9,7.57,8.58,14.74,13.91,21.44
		c-6.15,2.97-13.84,2.81-20.63,4c-6.16-13.02-8.96-17.88-14.62-26.3C835.9,532.93,842.68,533.24,849.47,533.66z M686.51,359.96
		c0.35-0.13,0.68-0.3,1.02-0.47C687.2,359.66,686.86,359.86,686.51,359.96z M634.43,312.04c51.2-17.22,156.55,52.77,155.17,107.05
		c-39.59-51.95-97.4-91.03-161.06-106.42C630.48,312.27,632.45,312.04,634.43,312.04z M585,249.46
		c13.63-0.52,28.24,1.21,17.63,17.84c-11.15-3.08-22.23-8.13-31.68-14.82C575.53,251.03,580.1,249.46,585,249.46z M224.02,396.95
		c2.42-11.18,6.96-21.94,13.61-31.25c9.49,6.74,19.94,11.85,29.29,18.75c-18.15-1.52-31.87-0.11-43.81,17.35
		C223.38,400.17,223.67,398.56,224.02,396.95z M255.66,412.29c-6.71,1.14-13.47,1.87-20.22,2.68c8.15-15.18,20.79-14.73,35.57-12.07
		C266.19,406.55,261.06,409.81,255.66,412.29z M282.82,416.06c-2.2,9.33-4.75,19.45-10.49,27.2c-13.96-0.14-27.87-4.12-40.38-10.22
		C251,431.66,268.04,429.45,282.82,416.06z M323.48,879.63c-19.63,1-39.45-1.08-58.99,1.48c-24.67,0.57-50.59,21.88-73.46,4.57
		c-0.33-16.17,10.83-29.2,16.34-43.6c8.28-18.61,13.14-40.97,7.22-60.64c55.31,16.34,122.05,14.44,161.78,62.73
		c-0.89,6.81,4.36,16.83,7.6,23.55C364.54,874.58,344.15,878.41,323.48,879.63z M564.88,778.84c-13.36,0.94-25.92,15.21-34.49,23.25
		c-11.8-9.23-30.86,3.63-42.15,10.66c7.57-20.72,37.76-79.18-5.84-76.25c-13.35,2.58-20.56,15.37-26.51,26.29
		c-1.09-11.87-14.77-29.63-26.34-20.29c-18.04-40.73-56.83-63.58-95.21-82.15c13.67-21.57-12.57-37.9-15.23-8.7
		c-32.3-17.16-62.88-38.04-96.48-52.46c1.66-8.86-12.55-14.81-16.39-5.43c-8.86,19.32-16.59,39.22-29.34,56.51
		c-25.97,45.06-79,55.98-124.55,71.56c-78.69,14.27,7.14-45.61,18.92-68.62c37.66-71.29,92.83-143.01,174.18-167.53
		c7.7,1.21,12.01-7.53,8.82-13.21c-10.35-10.88-30.2,1.16-43.51,7.42c-111.53,0.98-60.08-200.92-1.72-94.8
		c-3.33,13.97-10.17,43.26,1.36,53.98c11.37,12.47,60.82,30.68,73.87,17.65c11.36-12.9,15.1-31.64,17.33-48.14
		c3.12-16.73-7.71-26.99-20.69-35.83c4.37,2.01,7.94-1.59,11.95-2.48c6.72,0.33,13.67-0.69,14.06-8.89
		c0.16-17.52-42.4-6.93-29.5,8.97c-5.24-3.54-9.28-6.82-14.82-9.5c-27.34-98.87,125.3,9.93,74.98,72.08
		c-5.3,5.61-18.25,5.44-15.47,16.12c2.39,5.92,6.92,7.21,11.99,5.98c69.96-0.82,97.32,73.2,125.31,124.91
		c22.15,34.64,58.62,42.14,94.31,53.66c-0.33,2.23-0.65,4.44-0.98,6.65c-11.11-11.69-27.98-5-32.73,9.12
		c-7.82,18.96-3.75,40.32-1.67,60.17c4,26.61,12.52,68.47,46.8,67.08C565.04,777.37,564.95,778.1,564.88,778.84z M410.24,468.11
		c58.73-3.72,104.32-69.11,165.81-47.73c3.97,2.5,15.93,8.74,9.64,13.79c-83.28,24.9-63.46,77.88-125.09,110.06
		C446.82,517.22,432.3,489.33,410.24,468.11z M563.62,601.37c-2.79,4.3-4.73,8.94-6.18,13.76c-37.53-8.93-69.81-17.58-89.22-54.79
		c52.18-20.13,54.04-85.62,106.33-102.43c58.87-14.94,21.68-61.9-18.03-58.99c-78.1-3.28-117.25,81.29-201.1,40.11
		c26.82-41.95-0.92-110.26-37.45-138.26c29.37-49.01,76.62-73.59,119.92-108c19.6-24.06,5.19-52.82,49.96-52.45
		c10.91,4.07,13.04,19.12,17.51,28.76c11.51,28.87,15.6,68.12-27.82,43.29c-36.25-25.52-41.51,17.09-41.29,44.19
		c4.19,37.53,42.73,52.82,70.27,71.57c25.38,16.8,47.77,37.86,74.56,52.52c16.02,6.82,40.64,41.95,57.59,25.3
		c6.21-7.26,9.64-16.36,15.61-23.85c-0.37,34.79,4.33,70.05,15.44,103.07c-15.83,6.06-31.1,13.61-44.96,23.17
		c-23.63,0.93-46.91-5.44-70.49-3.18c-35.45,0.91,5.3,76.76,18.07,89.32C568.91,595.23,565.75,597.44,563.62,601.37z M559.67,530.73
		c-0.64-2.74-1.2-5.51-1.63-8.3h0.01v-0.01c121.76,7.36,35.42,5.84,139.57-28.17c5.22-0.24,10.28-4.04,10.47-9.56
		c7.97-20.9,20.66-39.8,36.28-55.73c8.48,15.72,17.08,31.64,22.18,48.83c4.11,9.12,4.92,21.78,12.85,28.28
		c5.22,7.05,13.43,11.73,19.63,17.93c12.1,12.64,22.12,27.04,28.97,43.15c-0.9,3.45,0.24,7.47,3.29,9.46
		c0.74,3.15,1.47,6.5,2.99,9.31c-24.31,29.05-43.47,62.13-58.68,96.76c-4.02,0.82-7.83,2.39-11.58,4.21v-0.01
		c-1.31-1.93-2.44-4-3.32-6.15c0.01-0.01,0.01-0.01,0-0.01c-12.12-28.11-6.01-62.22,13.42-85.58c-0.37,7.72-6.43,18.66,0.61,24.55
		c0.01,0,0.01,0.01,0.01,0.01c3.37,2.3,8.29,2.15,11.45-0.48c-3.74,5.52-9.81,14.48-3.44,19.71h0.01c1.25,1.1,3.44,2.04,5.12,2.14
		c0.01-0.01,0.02-0.01,0.03,0c7.23,0.56,10.34-7.42,13.4-12.76c3.56-6.02,7.5-11.74,11.18-17.7c4.07-8.67,23.22-29.69,14.25-37.62
		c-2.84-2.95-7.72-3.67-11.04-1.09c-9.74,13.66-17.32,29.58-27.07,43.55c1.73-12.93,4.56-25.8,7.43-38.55
		c4.74-3.55,12.35-5.84,12.45-12.91c0.01-4.46-3.48-8.24-7.77-8.74c0.78-8.02,7.28-20.59,1.63-27.09
		c-2.93-3.15-9.07-3.74-12.18-0.44c-6.51,11.13-5.84,26.21-9.78,38.6c-4.59,3.14-9.09,6.4-13.27,10.07
		c-8.87-5.01-21.85,3.52-30.27,7.38c-3.92,2.71-3.16,9.94,0.09,12.75c4.21,3.8,9.56,1.71,14.67-0.13
		c-11.65,19.8-16.96,43.76-14.01,66.4c-3.32-0.46-6.6-1.08-9.8-2.08c-5.89-7.65-10.83-16.22-13.65-25.49
		c16.43-13.52-0.5-30.95-12.78-12.31h-0.01c-3.37,2.74-7.86,0.69-11.64,1.98c-11.7,5.72-4.16,19.79,7.85,17.21
		c2.54,8.06,7.95,17.17,11.79,23.03c0.89,13.03,1.49,36.91,10.72,46.29c-11.26,8.21-22.25,18.02-31.4,28.7
		c-7.23-1.93-15.32-0.8-22.47-3.14c2.9-9.26,17.96-27.09,1.2-30.65c-10.55-1.33-13.31,17.99-18.16,25.39
		c-4.88-1.9-9.64-4.15-14.19-6.75v-0.01c6.91-7.17,13.25-14.89,19.67-22.51c6.55-6.53-0.24-16.29-7.99-14.91
		c-5.17,1.14-7.43,6.69-10.96,10.11c-4.99,5.74-10.08,11.38-15.08,17.09v0.01c-3.16-2.72-5.97-5.79-8.65-8.96v-0.01
		c-2.35-2.83-4.51-5.93-6.13-9.27c6.79-3.1,13.31-6.8,19.9-10.28c4.33-2.8,12.15-3.23,14.32-8.07c1.89-3.9,0.24-8.96-3.29-11.38
		c-10.53-5.29-26.74,9.79-37.2,13.23c-6.23-23.22-3.78-48.95-3.09-72.62c1.5-5.49,1.12-8.77-1.29-12.47
		C578.86,576.47,565.16,555.15,559.67,530.73z M733.23,790.63c-13.24-10.33-23.38,14.63-23.32,25.82
		c-3.87-0.94-7.53-2.28-10.86-4.32c4.33-3.51,2.89-9.46,4.09-14.29c0.84-8.09,11.62-17.63,1.62-23.89
		c-11.86-4.76-16.71,8.91-18.78,20.64c-8.79-36.16,51.73-77.57,81.46-89.75c-8.35,28.79-10.05,61.39,5.56,88.36
		c-13.71,12.59-24.62,25.05-44.99,24.87C726.05,804.49,741.88,801.51,733.23,790.63z M748.21,694.61
		c-4.94,2.27-9.77,4.89-14.48,7.73c0,0.01-0.01,0.01-0.01,0.01c-3.26-7.32-4.85-15.22-5.59-23.22h0.01v-0.01
		c4.68,0.83,9.23,1.54,13.79,1.81C743.58,685.65,745.69,690.22,748.21,694.61z M852.74,901.19c-1.03-2.19-2.23-4.29-3.58-6.3v-0.01
		c-0.91-1.34-1.87-2.63-2.9-3.88c0.01-0.01,0.01-0.01,0-0.01c-1.41-1.72-2.93-3.34-4.55-4.87c0,0,0,0-0.01,0
		c-7.48-6.32-17.38-13.46-27.4-13.5c-6.86,1.78-9.29,12.14-2.35,16.13c10.35,3.95,20.02,10.37,25.37,20.35
		c-22.82,2.75-45.35-3.53-67.94-5.79c-32.68-4.33-65.7-5.81-98.3-10.79c-90.95-15.63-116.56-94.73-65.96-168.27
		c1.37,1.36,2.78,2.68,4.24,3.95v0.01c-3.21,3.99-6.31,8.05-9.25,12.26c-4.48,7.74-18.77,18.97-10.12,27.37
		c13.5,10.87,24.22-21.38,33.56-29.17v-0.01c5.89,3.64,12.12,6.74,18.57,9.27c-4.82,10.84-9.59,21.66-13.88,32.72
		c-4.98,8.66-8.2,20.21,6,20.13c0-0.01,0.01-0.01,0.02,0c10.05-2.97,11.44-19.98,15.72-27.08c2.9-6.84,6.04-13.59,9.13-20.35
		c5.8,1.43,11.72,2.47,17.65,3.15c-38.24,60.76,43.88,102.89,90.57,65.71c31.59,12.57,64.84,5.89,89.11,37.39
		c-8.55-4.15-19.57-12.63-29.2-10.06c-5.26,1.73-7.56,10.56-2.76,14.43c13.03,6.52,29.61,10.08,36.52,24.69
		C859.2,893.35,856.36,897.68,852.74,901.19z M1105.18,946.24c-58.85,2.39-118.35,6.04-176.93-0.99c6.3-22.78,18.16-44.4,22.2-68.01
		c16.15-3.63,31.92-9.81,41.9-22.23c8.69,6.38,17.77,12.24,26.31,18.85c1.71,1.38,3.49,1.95,5.2,1.95
		c14.88-2.04,9.41-16.35,8.52-26.64c-1.58-13.23-1.64-27.43-8.52-39.29c28.89-0.31,57.9,1.43,86.8,0.85
		c0.47,2.5,0.93,5.14,2.34,7.29c-37.67,36-1.94,104.45,49.16,94.15c0.45,10.03,9.69,21.38,11.26,31.53
		C1150.68,945.47,1128,946.56,1105.18,946.24z M965.5,766.29c-21.89-43.87-44.14-87.59-68.09-130.39c3.95-1.29,7.9-3.01,11.33-4.6
		c31.66,48.58,56.35,101.02,81.96,152.94C983.84,776.03,975.04,770.6,965.5,766.29z M1001.7,814.12c-0.6-4.77-1.66-9.47-3.16-14.04
		c3.64,7.91,8.82,15.07,12.18,23.09c2.56,8.51,2.78,17.47,4.07,26.21c-4.99-3.49-9.9-6.91-14.6-10.8
		C1002.35,830.64,1002.71,822.32,1001.7,814.12z M1279.78,799.25c-7.17,37.96-78.78,93.19-117.08,95.15
		c-0.38-7.71,1.64-15.36,6.21-21.58c2.72-5.91-2.49-12.42-7.93-11.89c-13.6,1.12-15.57,22.31-15.87,33.24
		c-5.76-1.07-11.09-3.3-15.69-7.02c4.51-4.08,1.7-11.44,4.38-16.63c1.36-6.59,8.03-9.94,9.65-16.1c0.64-4.76-2.79-9.28-7.54-9.93
		c-10.51,0.32-16.71,13.46-19.61,22.41c-10.33-39.97,50.43-68.99,69.57-99.36c4.04-9.22-8.51-15.99-14.47-9.65
		c-1.74,2.46-3.76,4.69-5.89,6.84c-4.38-19.2-11.6-37.56-18.52-55.96c-5.02-9.21-8.38-39.63-24.05-27.18c0,0-0.01,0-0.01,0.01
		c-2.56,3.32-2.15,7.73-1.03,11.67c11.68,27.95,22.29,56.55,29.01,85.99c-1.19,1.14-2.37,2.28-3.56,3.43
		c-2.95-5.29-5.3-13.86-12.89-13.16c-43.91-0.74-88.66-3.8-132.52-2.24c-23.71-47.57-46.18-95.91-75.17-140.54
		c-4.29-5.8-6.45-16.93-15.65-14.95c-2.72-0.14-5.73,0.76-8.55,3.17c-7.64,5.69-27.38,2.05-25.4,15.72
		c2.12,17.15,16.98,31.55,23.59,47.53c13.52,26.29,27.11,52.56,40.53,78.89c-20.33-7.45-40.59-15.52-57.11-29.86
		c-7.21-4.35-10.93-15.97-19.84-17.14c-34.15,10.91,43.82,55.86,57.13,58.21c24.33,10.72,57.47,14.32,62.32,43.5
		c-11.66-0.78-23.11-4.9-34.23-8.04c-4.8,0-8.81,4.01-8.81,8.81c-0.24,12.7,33.78,15.57,43.65,16.88c-0.7,5.35-2.82,10.3-6.2,14.42
		c-3.72-3.44-11.06-2.81-16.17-3.75c-9.84-0.93-27.44-15.12-29.88,2.14c0.24,8.25,13.68,12.68,25.41,14.8
		c-28.43,8.48-56.88,7.91-83.38-3.03c-14.25-20.99-38.09-35.32-63.08-39.31c-75.66-73.38,2.48-181.13,59.03-241.69
		c3.21-0.5,6.42-0.96,9.64-1.35c5.78,5.31,12.01,10.21,18.6,14.63c-15.08,7.45-30.57,14.04-45.51,21.77
		c-7.08,2.63-7.03,13.56,0,16.23c8.94,2.63,20.46-8.29,29.3-11.06c11.74-4.85,22.99-10.69,34.33-16.37
		c73.42,36.67,170.54,13.92,224.68-45.63c19.06,8.79,30.47,17.31,44.35,33.19c-32.78,23.35-17.46,80.01,14.59,98.74
		c0.01,0,0.01,0,0.01,0c16.12,10.55,37.49,11.25,53.86,0.69c3.41,5.9,6.02,12.43,9.79,18.01c-26.24,26.79-9.15,63.89,16.36,83.48
		C1279.7,789.65,1280.94,794.98,1279.78,799.25z M1297.63,686.97c-6.8,0.44-13.62,2.08-19.77,4.96c-3.04-6.39-6-13.61-10.08-19.22
		c1.84-1.96,3.55-4.02,5.14-6.17c4.96,7.38,15.19,3.04,22.41,1.3C1296.37,673.9,1294.18,681.69,1297.63,686.97z M1411.9,830.53
		c-2.21,15.62-7.42,33.03-22.05,41.19c-56.86,25.67-87.26-18.11-82.15-72.2h0.01v-0.01c7.93,1.57,20.98,9.68,27.94,3.82
		c3.03-3.03,3.89-8.33,1.36-11.93c-5.46-5.4-14.8-5.08-21.87-8.15c-9.39-2.99-18.75-6.77-26.4-13.12
		c6.39-6.53,13.63-10.04,22.36-12.38c6.17-2.26,5.66-12.77-0.56-15.29c-9.35-3.05-25.74,5.36-33.11,14.28
		c-1.98-2.94-3.83-5.98-5.44-9.12c5.4-1.72,8.45-9.76,14.7-11.05c4.08-2,8.87,0.94,12.51-2.17c6.96-4.63,3.23-15.67-4.78-16.35
		c-7.45-1.32-18.01,2.67-25.21,8.42c12.97-36.82,67.94-22.91,80.99,8.24c15,17.6,35.2,29.58,51,46.41c2.73,3.24,5,7.8,9.73,8.17
		C1412.89,802.9,1413.72,816.97,1411.9,830.53z M1354.76,711.36c12.2,6.68,22.21,15.91,32.38,25.34c-2.16,0.9-4.33,1.89-6.14,3.36
		c-3.31-2.74-6.61-5.56-9.74-8.5h-0.01c-5.7-6.07-10.92-12.99-15.64-19.1c0,0,0,0,0-0.01
		C1355.32,712.09,1355.03,711.73,1354.76,711.36c0.02,0.04,0.04,0.07,0.08,0.1C1354.81,711.42,1354.78,711.39,1354.76,711.36z
		 M1396.12,752.32c1.26-0.6,2.45-1.21,3.55-1.78c0-0.01,0.01-0.01,0.01-0.01c0.52,2.2,1.24,4.38,2.01,6.54
		C1399.87,755.45,1398.01,753.89,1396.12,752.32z M1419.7,740.81c-0.86-0.74-1.72-1.48-2.57-2.24c3.82-3.2,7.44-6.65,10.84-10.3
		c1.75,1.42,3.49,2.85,5.23,4.28c-0.71,7.27-0.19,14.68,2,21.67C1430.23,749.54,1424.88,745.26,1419.7,740.81z M1433.5,780.09
		c-1.86,4.76-3.17,9.73-3.9,14.79l-0.01,0.01c-1.01-8.94-2.62-17.83-5.06-26.5c3.03,3.39,6.18,7.26,11.01,7.07
		C1434.8,776.97,1434.12,778.52,1433.5,780.09z M1432.65,691.65c-1.31,2.46-2.52,5-4.05,7.34c0,0.01-0.01,0.01-0.01,0.01
		c-0.72,1.13-1.46,2.26-2.22,3.35c0,0.01,0,0.01-0.01,0.01c-0.38,0.56-0.76,1.11-1.15,1.65h-0.01
		c-14.56-9.96-30.75-16.95-46.12-25.59c-8.18-5.27-20.35,3.9-13.33,12.44v0.01c15.01,10.06,32.99,16.27,48.08,26.66h0.01
		c-3.38,3.44-6.94,6.68-10.68,9.69c-10.4-6.62-37.41-41.49-49.06-26.38v0.01c-1.96,2.8-2.19,6.68-0.1,9.58
		c-9.83-13.96-25.59-20.68-42.35-22.82c3.99-7.73,0.83-19.39,0.54-28.14c3.29-3.64,5.95-7.88,9.27-11.49
		c6.84,8.91,20.77-2.28,13.7-10.95c-4.59-7.01-11.67-13.91-20.3-14.78c-7.45-0.24-11.09,8.87-6.91,14.32
		c-7.92,12.48-13.16,14.64-27.53,16.36c5.44-18.43-0.42-39.48-11.45-54.74v-0.01c17.22-6.68-2.83-22.03-7.4-31.66
		c11.67-10.21,22.69-21.66,36.45-29.07c4.18-2.08,10.06-3.18,11.48-8.33c11.79-13.96,25.27-25.39,40.16-35.71c0,0,0-0.01,0.01-0.01
		c4.91-3.24,10.13-6.07,15.6-8.25c7.62,19.79,6.8,37.13,2.47,57.47c0.02,7.6,8.57,8.96,13.28,13.13h0.01
		c1.67,1.18,3.18,2.51,4.81,3.75c0,0,0,0,0.01,0c6.29,4.84,12.9,9.37,18.68,14.81c1.79,7.2,12.8,9.65,17.3,3.64
		c18.71-7.79,38.73-13.25,59.16-11.68c-4.75,20.45-15.1,38.92-24.78,57.34C1453.55,647.8,1444,670.23,1432.65,691.65z
		 M1576.86,801.15c-11.16,18.49-15.02,43.88-1.9,62.18c-13.72,5.46-36.22,3.54-47.13-4.97c-6.35-4.3-8.79-13.36-16.65-13.89
		c-25.51,12.1-61.72-4-64.53-33.7c-0.01-0.01-0.01-0.01,0-0.02c-2.58-31.58,15.25-33.35,13.64-43.98
		c-2.29-8.26-8.55-15.78-9.44-24.77c7.55-2.65,8.46-12.66,1.28-16.73c5.77-18.41,18.64-34.59,31.71-48.62
		c5.51-5.04,14.12-5.1,19.69-10.07c6.4-5.48-1.84-20.42,5.13-35.85c6.04-16.21,18.02-29.97,32.6-38.88
		c3.93,1.95,7.99,3.65,12.13,5.13c-16.8,23.29-20.55,50.64-31.5,77.49c-3.96-0.15-7.99,0-12.06,0.42
		c-10.73-0.16-11.73,16.32-1.16,17.54c14.45-0.19,27.99-1.82,38.25,10.92c9.55,16.78,16.21,11.04,32.3,9.06
		C1554.53,734.65,1553.81,777.24,1576.86,801.15z M1981.94,818.66c-4.94,27.04-29.16,50.65-55.34,57.7
		c-8.03,2.18-18.65-1.47-24.78,5.37c-7.43,35.37-54.67,46.08-81.18,24.9c-6.73-4.07-8.27-14.81-16.7-15.29
		c-5.47,1.22-6.8,3.21-9.26,6.13c-31.56,37.86-107.23,33.45-128.57-13.11c-3.29-14.23-3.2-24.8-21.37-15.94
		c-44.35,15.82-81.3-27.89-46.64-66.55c1.64-4.36-0.94-9.89-5.45-11.06c-21.85-15.7-18.24-52.29,0.63-67.25
		c0.01,0,0.01-0.01,0.01-0.01c0.49-0.38,0.97-0.75,1.47-1.11c0,0,0,0,0.01,0c8.22-5.87,20.02-8.05,31.36-3.82
		c5.89,2.85,9.09,9.13,13.9,13.13c9.01,8.26,16.25-3.61,23.32-8.16c24.54-14,59.35-20.51,83.22-1.98v0.01
		c10.03,13.12,16.1,11.82,25.04-1.37c23.13-25.58,63.39-21.93,90.3-1.49c5.83,4.66,12.76,0.25,14.01-5.85
		c0.47-2.33-0.13-4.83-1.7-6.65c-33.12-27.37-85.38-31.19-115.86,2.28c-19.17-15.83-45.92-18.89-69.62-13.64
		c-13.42-29.03-17.28-64.78-43.68-85.9c30.74-3.88,60.73-13.41,88.51-27.03c3.05,17.03,23.57,18.26,18.99-0.68
		c-11.41-20.54,11.09-49.36,26.73-62.25c44.55-26.11-31.62-23.14-7.18-82.87c6.3-9.5,4.5-15.81-3.56-18.66
		c-14.15-1.74-28.93-2.28-41.55-10.25c-26.49-13.2-13.1-24.09-21.14-40.28c-11.29-7.81-23.33,8.45-35.57,7.02
		c-13.75-0.43-30.06,2.44-41.4-7.08c0,0-0.01,0-0.01-0.01c-4.43-3.55-5.61-9.29-7.14-14.46c-4.51-14.12-24.36-6.96-14.69,12.88
		c-15.24,5.65-28.16,18.03-34.55,27.83c0.34-47.42,26.03-33.66,28.94-48.52c-10.88-36.4,41.41-66.83,69.42-44.47
		c9.38,6.13,15.91,3.22,20.03-6.38c18.19-23.01,56.35-24.48,75.6-1.9c6.39,8.64,7.76,23.63,22.38,15.79
		c29.4-8.23,74.06,0.67,74,38.08c0.25,7.48-6.12,13.76-4.68,21.09c2.97,9.36,14.49,7.73,21.07,13.02
		c30.85,25.05,43.15,49.68,31.45,87.47c-17.38-4.57-30.71-11.91-48.48-20.11c0.7-4.69,0.52-9.58-0.71-14.5
		c-2.93-7.68-2.54-22.35-13.9-21.39c-6.95,1.01-8.22,7.38-6.93,13.12c2.72,8.03,6.6,16.66,2.9,24.95
		c-3.39,10.01-19.17,14.22-13.42,26.66c17.23,24.15-13.73,38.65,1.11,48.84c9.63,4.41,14.67-5.67,18.01-14.7
		c17.88,22.97,50.14,34.5,77.28,22.56c8.88,15.05,20.94,26.61,21.18,44.65c0.33,11.37,0.17,23.57-5.09,33.87
		c-1.93,5.16-8.07,7.96-8.05,13.88c1.18,12.44,31.65,20.81,37.08,53.04c10.09,41.66-24.87,65.7-10.93,75.15
		C1972.46,773.09,1984.76,794.96,1981.94,818.66z"/>
	<path d="M1646.7,504.59c-5.59-2.41-11.2-4.92-17.41-4.27c-7.53-0.84-10.37-11.23-4.18-15.71c8.84-5.12,20.02,0.36,28.44,3.74
		C1664.56,492.92,1656.39,509.33,1646.7,504.59z"/>
	<path d="M1254.2,404.21c-1.1,9.31,1.21,33.39-11.54,33.39c-7.94,0.37-10.8-8.35-7.65-14.64c2.3-7.92-1.13-18.03,4.92-24.47
		c0-0.01,0.01-0.02,0.02-0.02c0.18-0.16,0.39-0.31,0.59-0.46h0.01C1245.7,394.43,1253.5,397.99,1254.2,404.21z"/>
	<path d="M1057.7,566.49c-5.62,16.02-35.28,13.9-46.54,5.04c-5.32,10.81-34.95,28.23-38.24,8.45c1.65-18.09,34.02,1.87,23.41-41.91
		c-7.14-0.77-16.42-2.67-16.7-10.9c0-4.8,4.01-8.81,8.81-8.81c17.02,3.73,12.24,3.7,27.65-4.75c4.36-2.2,9.75,0.55,11.56,4.84
		c3.83,8.88-7.15,12.57-12.99,16.19h-0.01c1.79,8.57,3.77,17.04,8.61,24.17c9.36,3.2,15.02,1.53,19.36-0.14
		C1049.74,554.24,1058.34,558.38,1057.7,566.49z"/>
	<path class="st0" d="M1255.07,588.39c-2.14-1.14-4.36-2.24-6.63-3.27c0.65-1.2,1.26-2.44,1.87-3.65
		C1251.82,583.84,1253.38,586.17,1255.07,588.39z"/>
</g>
</svg>
